<mxfile host="Electron" agent="Mozilla/5.0 (Macintosh; Intel Mac OS X 10_15_7) AppleWebKit/537.36 (KHTML, like Gecko) draw.io/24.7.5 Chrome/126.0.6478.183 Electron/31.3.0 Safari/537.36" version="24.7.5">
  <diagram name="PÃ¡gina-1" id="MznhhqLxmmpEw6wo9LgN">
    <mxGraphModel dx="794" dy="534" grid="1" gridSize="10" guides="1" tooltips="1" connect="1" arrows="1" fold="1" page="1" pageScale="1" pageWidth="827" pageHeight="1169" math="0" shadow="0">
      <root>
        <mxCell id="0" />
        <mxCell id="1" parent="0" />
        <mxCell id="diIoc7219wXee2be8ETG-16" style="edgeStyle=orthogonalEdgeStyle;rounded=0;orthogonalLoop=1;jettySize=auto;html=1;exitX=0.5;exitY=1;exitDx=0;exitDy=0;entryX=0.5;entryY=0;entryDx=0;entryDy=0;endArrow=none;endFill=0;" edge="1" parent="1" source="diIoc7219wXee2be8ETG-1" target="diIoc7219wXee2be8ETG-15">
          <mxGeometry relative="1" as="geometry" />
        </mxCell>
        <mxCell id="diIoc7219wXee2be8ETG-58" style="edgeStyle=orthogonalEdgeStyle;rounded=0;orthogonalLoop=1;jettySize=auto;html=1;exitX=1;exitY=0.5;exitDx=0;exitDy=0;entryX=0;entryY=0.5;entryDx=0;entryDy=0;endArrow=none;endFill=0;" edge="1" parent="1" source="diIoc7219wXee2be8ETG-1" target="diIoc7219wXee2be8ETG-57">
          <mxGeometry relative="1" as="geometry" />
        </mxCell>
        <mxCell id="diIoc7219wXee2be8ETG-1" value="BARRIO CERRADO" style="whiteSpace=wrap;html=1;align=center;" vertex="1" parent="1">
          <mxGeometry x="160" y="150" width="100" height="40" as="geometry" />
        </mxCell>
        <mxCell id="diIoc7219wXee2be8ETG-2" value="id" style="ellipse;whiteSpace=wrap;html=1;align=center;fontStyle=4;" vertex="1" parent="1">
          <mxGeometry x="150" y="40" width="50" height="40" as="geometry" />
        </mxCell>
        <mxCell id="diIoc7219wXee2be8ETG-3" value="fechaInauguracion" style="ellipse;whiteSpace=wrap;html=1;align=center;" vertex="1" parent="1">
          <mxGeometry x="220" y="60" width="140" height="40" as="geometry" />
        </mxCell>
        <mxCell id="diIoc7219wXee2be8ETG-4" value="nombre" style="ellipse;whiteSpace=wrap;html=1;align=center;" vertex="1" parent="1">
          <mxGeometry x="318" y="100" width="96" height="40" as="geometry" />
        </mxCell>
        <mxCell id="diIoc7219wXee2be8ETG-5" value="calle" style="ellipse;whiteSpace=wrap;html=1;align=center;" vertex="1" parent="1">
          <mxGeometry x="60" y="70" width="80" height="40" as="geometry" />
        </mxCell>
        <mxCell id="diIoc7219wXee2be8ETG-6" value="nro" style="ellipse;whiteSpace=wrap;html=1;align=center;" vertex="1" parent="1">
          <mxGeometry x="30" y="120" width="70" height="40" as="geometry" />
        </mxCell>
        <mxCell id="diIoc7219wXee2be8ETG-7" value="localidad" style="ellipse;whiteSpace=wrap;html=1;align=center;" vertex="1" parent="1">
          <mxGeometry x="10" y="180" width="90" height="40" as="geometry" />
        </mxCell>
        <mxCell id="diIoc7219wXee2be8ETG-8" value="" style="endArrow=none;html=1;rounded=0;entryX=0.5;entryY=1;entryDx=0;entryDy=0;exitX=0.41;exitY=-0.1;exitDx=0;exitDy=0;exitPerimeter=0;" edge="1" parent="1" source="diIoc7219wXee2be8ETG-1" target="diIoc7219wXee2be8ETG-2">
          <mxGeometry width="50" height="50" relative="1" as="geometry">
            <mxPoint x="280" y="290" as="sourcePoint" />
            <mxPoint x="330" y="240" as="targetPoint" />
          </mxGeometry>
        </mxCell>
        <mxCell id="diIoc7219wXee2be8ETG-9" value="" style="endArrow=none;html=1;rounded=0;entryX=0;entryY=1;entryDx=0;entryDy=0;exitX=0.6;exitY=-0.05;exitDx=0;exitDy=0;exitPerimeter=0;" edge="1" parent="1" source="diIoc7219wXee2be8ETG-1" target="diIoc7219wXee2be8ETG-3">
          <mxGeometry width="50" height="50" relative="1" as="geometry">
            <mxPoint x="211" y="156" as="sourcePoint" />
            <mxPoint x="185" y="90" as="targetPoint" />
          </mxGeometry>
        </mxCell>
        <mxCell id="diIoc7219wXee2be8ETG-10" value="" style="endArrow=none;html=1;rounded=0;entryX=0;entryY=0.75;entryDx=0;entryDy=0;exitX=0.92;exitY=0;exitDx=0;exitDy=0;entryPerimeter=0;exitPerimeter=0;" edge="1" parent="1" source="diIoc7219wXee2be8ETG-1" target="diIoc7219wXee2be8ETG-4">
          <mxGeometry width="50" height="50" relative="1" as="geometry">
            <mxPoint x="230" y="158" as="sourcePoint" />
            <mxPoint x="251" y="104" as="targetPoint" />
          </mxGeometry>
        </mxCell>
        <mxCell id="diIoc7219wXee2be8ETG-11" value="" style="endArrow=none;html=1;rounded=0;entryX=1;entryY=0.75;entryDx=0;entryDy=0;exitX=0.25;exitY=0;exitDx=0;exitDy=0;entryPerimeter=0;" edge="1" parent="1" source="diIoc7219wXee2be8ETG-1" target="diIoc7219wXee2be8ETG-5">
          <mxGeometry width="50" height="50" relative="1" as="geometry">
            <mxPoint x="270" y="180" as="sourcePoint" />
            <mxPoint x="320" y="160" as="targetPoint" />
          </mxGeometry>
        </mxCell>
        <mxCell id="diIoc7219wXee2be8ETG-12" value="" style="endArrow=none;html=1;rounded=0;entryX=1;entryY=0.5;entryDx=0;entryDy=0;exitX=0;exitY=0.25;exitDx=0;exitDy=0;" edge="1" parent="1" source="diIoc7219wXee2be8ETG-1" target="diIoc7219wXee2be8ETG-6">
          <mxGeometry width="50" height="50" relative="1" as="geometry">
            <mxPoint x="195" y="160" as="sourcePoint" />
            <mxPoint x="150" y="110" as="targetPoint" />
          </mxGeometry>
        </mxCell>
        <mxCell id="diIoc7219wXee2be8ETG-13" value="" style="endArrow=none;html=1;rounded=0;entryX=0.956;entryY=0.25;entryDx=0;entryDy=0;exitX=0;exitY=0.5;exitDx=0;exitDy=0;entryPerimeter=0;" edge="1" parent="1" source="diIoc7219wXee2be8ETG-1" target="diIoc7219wXee2be8ETG-7">
          <mxGeometry width="50" height="50" relative="1" as="geometry">
            <mxPoint x="170" y="170" as="sourcePoint" />
            <mxPoint x="110" y="150" as="targetPoint" />
          </mxGeometry>
        </mxCell>
        <mxCell id="diIoc7219wXee2be8ETG-24" style="edgeStyle=orthogonalEdgeStyle;rounded=0;orthogonalLoop=1;jettySize=auto;html=1;exitX=1;exitY=0.5;exitDx=0;exitDy=0;entryX=0;entryY=0.5;entryDx=0;entryDy=0;endArrow=none;endFill=0;" edge="1" parent="1" source="diIoc7219wXee2be8ETG-14" target="diIoc7219wXee2be8ETG-23">
          <mxGeometry relative="1" as="geometry" />
        </mxCell>
        <mxCell id="diIoc7219wXee2be8ETG-45" style="edgeStyle=orthogonalEdgeStyle;rounded=0;orthogonalLoop=1;jettySize=auto;html=1;exitX=0.5;exitY=1;exitDx=0;exitDy=0;entryX=0.5;entryY=0;entryDx=0;entryDy=0;endArrow=none;endFill=0;" edge="1" parent="1" source="diIoc7219wXee2be8ETG-14" target="diIoc7219wXee2be8ETG-43">
          <mxGeometry relative="1" as="geometry" />
        </mxCell>
        <mxCell id="diIoc7219wXee2be8ETG-14" value="LOTE" style="shape=ext;margin=3;double=1;whiteSpace=wrap;html=1;align=center;" vertex="1" parent="1">
          <mxGeometry x="160" y="360" width="100" height="40" as="geometry" />
        </mxCell>
        <mxCell id="diIoc7219wXee2be8ETG-17" style="edgeStyle=orthogonalEdgeStyle;rounded=0;orthogonalLoop=1;jettySize=auto;html=1;exitX=0.5;exitY=1;exitDx=0;exitDy=0;entryX=0.5;entryY=0;entryDx=0;entryDy=0;endArrow=none;endFill=0;shape=link;" edge="1" parent="1" source="diIoc7219wXee2be8ETG-15" target="diIoc7219wXee2be8ETG-14">
          <mxGeometry relative="1" as="geometry" />
        </mxCell>
        <mxCell id="diIoc7219wXee2be8ETG-15" value="Tiene" style="shape=rhombus;double=1;perimeter=rhombusPerimeter;whiteSpace=wrap;html=1;align=center;" vertex="1" parent="1">
          <mxGeometry x="170" y="260" width="80" height="40" as="geometry" />
        </mxCell>
        <mxCell id="diIoc7219wXee2be8ETG-18" value="&lt;span style=&quot;border-bottom: 1px dotted&quot;&gt;nro&lt;/span&gt;" style="ellipse;whiteSpace=wrap;html=1;align=center;" vertex="1" parent="1">
          <mxGeometry x="40" y="360" width="60" height="40" as="geometry" />
        </mxCell>
        <mxCell id="diIoc7219wXee2be8ETG-19" value="supM2" style="ellipse;whiteSpace=wrap;html=1;align=center;" vertex="1" parent="1">
          <mxGeometry x="20" y="290" width="100" height="40" as="geometry" />
        </mxCell>
        <mxCell id="diIoc7219wXee2be8ETG-20" value="" style="endArrow=none;html=1;rounded=0;entryX=0.94;entryY=0.675;entryDx=0;entryDy=0;exitX=0;exitY=0;exitDx=0;exitDy=0;entryPerimeter=0;" edge="1" parent="1" source="diIoc7219wXee2be8ETG-14" target="diIoc7219wXee2be8ETG-19">
          <mxGeometry width="50" height="50" relative="1" as="geometry">
            <mxPoint x="170" y="180" as="sourcePoint" />
            <mxPoint x="106" y="200" as="targetPoint" />
          </mxGeometry>
        </mxCell>
        <mxCell id="diIoc7219wXee2be8ETG-21" value="" style="endArrow=none;html=1;rounded=0;entryX=1;entryY=0.5;entryDx=0;entryDy=0;exitX=0;exitY=0.5;exitDx=0;exitDy=0;" edge="1" parent="1" source="diIoc7219wXee2be8ETG-14" target="diIoc7219wXee2be8ETG-18">
          <mxGeometry width="50" height="50" relative="1" as="geometry">
            <mxPoint x="170" y="370" as="sourcePoint" />
            <mxPoint x="127" y="313" as="targetPoint" />
          </mxGeometry>
        </mxCell>
        <mxCell id="diIoc7219wXee2be8ETG-22" value="PROPIETARIO" style="whiteSpace=wrap;html=1;align=center;" vertex="1" parent="1">
          <mxGeometry x="540" y="360" width="100" height="40" as="geometry" />
        </mxCell>
        <mxCell id="diIoc7219wXee2be8ETG-25" style="edgeStyle=orthogonalEdgeStyle;rounded=0;orthogonalLoop=1;jettySize=auto;html=1;exitX=1;exitY=0.5;exitDx=0;exitDy=0;entryX=0;entryY=0.5;entryDx=0;entryDy=0;endArrow=none;endFill=0;" edge="1" parent="1" source="diIoc7219wXee2be8ETG-23" target="diIoc7219wXee2be8ETG-22">
          <mxGeometry relative="1" as="geometry" />
        </mxCell>
        <mxCell id="diIoc7219wXee2be8ETG-23" value="Pertenece a" style="shape=rhombus;perimeter=rhombusPerimeter;whiteSpace=wrap;html=1;align=center;" vertex="1" parent="1">
          <mxGeometry x="350" y="355" width="100" height="50" as="geometry" />
        </mxCell>
        <mxCell id="diIoc7219wXee2be8ETG-26" value="nombre" style="ellipse;whiteSpace=wrap;html=1;align=center;" vertex="1" parent="1">
          <mxGeometry x="480" y="430" width="100" height="40" as="geometry" />
        </mxCell>
        <mxCell id="diIoc7219wXee2be8ETG-27" value="telefono" style="ellipse;whiteSpace=wrap;html=1;align=center;" vertex="1" parent="1">
          <mxGeometry x="540" y="480" width="100" height="40" as="geometry" />
        </mxCell>
        <mxCell id="diIoc7219wXee2be8ETG-28" value="email" style="ellipse;whiteSpace=wrap;html=1;align=center;" vertex="1" parent="1">
          <mxGeometry x="630" y="440" width="100" height="40" as="geometry" />
        </mxCell>
        <mxCell id="diIoc7219wXee2be8ETG-29" value="nroDoc" style="ellipse;whiteSpace=wrap;html=1;align=center;fontStyle=4;" vertex="1" parent="1">
          <mxGeometry x="680" y="380" width="100" height="40" as="geometry" />
        </mxCell>
        <mxCell id="diIoc7219wXee2be8ETG-30" value="tipoDoc" style="ellipse;whiteSpace=wrap;html=1;align=center;fontStyle=4;" vertex="1" parent="1">
          <mxGeometry x="670" y="320" width="100" height="40" as="geometry" />
        </mxCell>
        <mxCell id="diIoc7219wXee2be8ETG-31" value="" style="endArrow=none;html=1;rounded=0;entryX=0.25;entryY=1;entryDx=0;entryDy=0;exitX=1;exitY=0.5;exitDx=0;exitDy=0;" edge="1" parent="1" target="diIoc7219wXee2be8ETG-22">
          <mxGeometry width="50" height="50" relative="1" as="geometry">
            <mxPoint x="550" y="430" as="sourcePoint" />
            <mxPoint x="600" y="410" as="targetPoint" />
          </mxGeometry>
        </mxCell>
        <mxCell id="diIoc7219wXee2be8ETG-32" value="" style="endArrow=none;html=1;rounded=0;entryX=0.5;entryY=1;entryDx=0;entryDy=0;exitX=0.57;exitY=-0.075;exitDx=0;exitDy=0;exitPerimeter=0;" edge="1" parent="1" source="diIoc7219wXee2be8ETG-27" target="diIoc7219wXee2be8ETG-22">
          <mxGeometry width="50" height="50" relative="1" as="geometry">
            <mxPoint x="560" y="440" as="sourcePoint" />
            <mxPoint x="575" y="410" as="targetPoint" />
          </mxGeometry>
        </mxCell>
        <mxCell id="diIoc7219wXee2be8ETG-33" value="" style="endArrow=none;html=1;rounded=0;entryX=0.75;entryY=1;entryDx=0;entryDy=0;exitX=0;exitY=0;exitDx=0;exitDy=0;" edge="1" parent="1" source="diIoc7219wXee2be8ETG-28" target="diIoc7219wXee2be8ETG-22">
          <mxGeometry width="50" height="50" relative="1" as="geometry">
            <mxPoint x="607" y="487" as="sourcePoint" />
            <mxPoint x="600" y="410" as="targetPoint" />
          </mxGeometry>
        </mxCell>
        <mxCell id="diIoc7219wXee2be8ETG-34" value="" style="endArrow=none;html=1;rounded=0;entryX=1;entryY=0.75;entryDx=0;entryDy=0;" edge="1" parent="1" source="diIoc7219wXee2be8ETG-29" target="diIoc7219wXee2be8ETG-22">
          <mxGeometry width="50" height="50" relative="1" as="geometry">
            <mxPoint x="655" y="456" as="sourcePoint" />
            <mxPoint x="625" y="410" as="targetPoint" />
          </mxGeometry>
        </mxCell>
        <mxCell id="diIoc7219wXee2be8ETG-35" value="" style="endArrow=none;html=1;rounded=0;entryX=1;entryY=0.5;entryDx=0;entryDy=0;exitX=0;exitY=1;exitDx=0;exitDy=0;" edge="1" parent="1" source="diIoc7219wXee2be8ETG-30" target="diIoc7219wXee2be8ETG-22">
          <mxGeometry width="50" height="50" relative="1" as="geometry">
            <mxPoint x="692" y="405" as="sourcePoint" />
            <mxPoint x="650" y="400" as="targetPoint" />
          </mxGeometry>
        </mxCell>
        <mxCell id="diIoc7219wXee2be8ETG-36" value="1" style="text;html=1;align=center;verticalAlign=middle;resizable=0;points=[];autosize=1;strokeColor=none;fillColor=none;" vertex="1" parent="1">
          <mxGeometry x="215" y="188" width="30" height="30" as="geometry" />
        </mxCell>
        <mxCell id="diIoc7219wXee2be8ETG-37" value="N" style="text;html=1;align=center;verticalAlign=middle;resizable=0;points=[];autosize=1;strokeColor=none;fillColor=none;" vertex="1" parent="1">
          <mxGeometry x="215" y="328" width="30" height="30" as="geometry" />
        </mxCell>
        <mxCell id="diIoc7219wXee2be8ETG-38" value="N" style="text;html=1;align=center;verticalAlign=middle;resizable=0;points=[];autosize=1;strokeColor=none;fillColor=none;" vertex="1" parent="1">
          <mxGeometry x="505" y="348" width="30" height="30" as="geometry" />
        </mxCell>
        <mxCell id="diIoc7219wXee2be8ETG-39" value="N" style="text;html=1;align=center;verticalAlign=middle;resizable=0;points=[];autosize=1;strokeColor=none;fillColor=none;" vertex="1" parent="1">
          <mxGeometry x="260" y="348" width="30" height="30" as="geometry" />
        </mxCell>
        <mxCell id="diIoc7219wXee2be8ETG-40" value="porcentaje" style="ellipse;whiteSpace=wrap;html=1;align=center;" vertex="1" parent="1">
          <mxGeometry x="330" y="290" width="100" height="40" as="geometry" />
        </mxCell>
        <mxCell id="diIoc7219wXee2be8ETG-41" value="" style="endArrow=none;html=1;rounded=0;exitX=0.34;exitY=0.16;exitDx=0;exitDy=0;exitPerimeter=0;entryX=0.5;entryY=1;entryDx=0;entryDy=0;" edge="1" parent="1" source="diIoc7219wXee2be8ETG-23" target="diIoc7219wXee2be8ETG-40">
          <mxGeometry width="50" height="50" relative="1" as="geometry">
            <mxPoint x="560" y="440" as="sourcePoint" />
            <mxPoint x="370" y="332" as="targetPoint" />
          </mxGeometry>
        </mxCell>
        <mxCell id="diIoc7219wXee2be8ETG-42" value="CUOTA EXPENSAS" style="shape=ext;margin=3;double=1;whiteSpace=wrap;html=1;align=center;" vertex="1" parent="1">
          <mxGeometry x="160" y="565" width="100" height="40" as="geometry" />
        </mxCell>
        <mxCell id="diIoc7219wXee2be8ETG-43" value="Abona" style="shape=rhombus;double=1;perimeter=rhombusPerimeter;whiteSpace=wrap;html=1;align=center;" vertex="1" parent="1">
          <mxGeometry x="170" y="460" width="80" height="40" as="geometry" />
        </mxCell>
        <mxCell id="diIoc7219wXee2be8ETG-44" style="edgeStyle=orthogonalEdgeStyle;rounded=0;orthogonalLoop=1;jettySize=auto;html=1;entryX=0.5;entryY=0;entryDx=0;entryDy=0;endArrow=none;endFill=0;shape=link;width=-6;exitX=0.5;exitY=1;exitDx=0;exitDy=0;" edge="1" parent="1" source="diIoc7219wXee2be8ETG-43" target="diIoc7219wXee2be8ETG-42">
          <mxGeometry relative="1" as="geometry">
            <mxPoint x="210" y="530" as="sourcePoint" />
            <mxPoint x="220" y="370" as="targetPoint" />
            <Array as="points">
              <mxPoint x="210" y="530" />
              <mxPoint x="210" y="530" />
            </Array>
          </mxGeometry>
        </mxCell>
        <mxCell id="diIoc7219wXee2be8ETG-46" value="N" style="text;html=1;align=center;verticalAlign=middle;resizable=0;points=[];autosize=1;strokeColor=none;fillColor=none;" vertex="1" parent="1">
          <mxGeometry x="215" y="538" width="30" height="30" as="geometry" />
        </mxCell>
        <mxCell id="diIoc7219wXee2be8ETG-47" value="1" style="text;html=1;align=center;verticalAlign=middle;resizable=0;points=[];autosize=1;strokeColor=none;fillColor=none;" vertex="1" parent="1">
          <mxGeometry x="210" y="400" width="30" height="30" as="geometry" />
        </mxCell>
        <mxCell id="diIoc7219wXee2be8ETG-48" value="&lt;span style=&quot;border-bottom: 1px dotted&quot;&gt;aÃ±oYMes&lt;/span&gt;" style="ellipse;whiteSpace=wrap;html=1;align=center;" vertex="1" parent="1">
          <mxGeometry x="60" y="620" width="75" height="40" as="geometry" />
        </mxCell>
        <mxCell id="diIoc7219wXee2be8ETG-49" value="fechaVencimiento" style="ellipse;whiteSpace=wrap;html=1;align=center;" vertex="1" parent="1">
          <mxGeometry x="90" y="690" width="125" height="40" as="geometry" />
        </mxCell>
        <mxCell id="diIoc7219wXee2be8ETG-50" value="importeCuota" style="ellipse;whiteSpace=wrap;html=1;align=center;" vertex="1" parent="1">
          <mxGeometry x="225" y="690" width="125" height="40" as="geometry" />
        </mxCell>
        <mxCell id="diIoc7219wXee2be8ETG-51" value="fechaPago" style="ellipse;whiteSpace=wrap;html=1;align=center;" vertex="1" parent="1">
          <mxGeometry x="290" y="630" width="105" height="40" as="geometry" />
        </mxCell>
        <mxCell id="diIoc7219wXee2be8ETG-52" value="" style="endArrow=none;html=1;rounded=0;entryX=1;entryY=0;entryDx=0;entryDy=0;exitX=0;exitY=0.5;exitDx=0;exitDy=0;" edge="1" parent="1" source="diIoc7219wXee2be8ETG-42" target="diIoc7219wXee2be8ETG-48">
          <mxGeometry width="50" height="50" relative="1" as="geometry">
            <mxPoint x="170" y="390" as="sourcePoint" />
            <mxPoint x="110" y="390" as="targetPoint" />
          </mxGeometry>
        </mxCell>
        <mxCell id="diIoc7219wXee2be8ETG-53" value="" style="endArrow=none;html=1;rounded=0;entryX=0.5;entryY=0;entryDx=0;entryDy=0;exitX=0.18;exitY=0.925;exitDx=0;exitDy=0;exitPerimeter=0;" edge="1" parent="1" source="diIoc7219wXee2be8ETG-42" target="diIoc7219wXee2be8ETG-49">
          <mxGeometry width="50" height="50" relative="1" as="geometry">
            <mxPoint x="170" y="595" as="sourcePoint" />
            <mxPoint x="134" y="636" as="targetPoint" />
          </mxGeometry>
        </mxCell>
        <mxCell id="diIoc7219wXee2be8ETG-54" value="" style="endArrow=none;html=1;rounded=0;entryX=0.272;entryY=0.05;entryDx=0;entryDy=0;exitX=0.57;exitY=1;exitDx=0;exitDy=0;exitPerimeter=0;entryPerimeter=0;" edge="1" parent="1" source="diIoc7219wXee2be8ETG-42" target="diIoc7219wXee2be8ETG-50">
          <mxGeometry width="50" height="50" relative="1" as="geometry">
            <mxPoint x="188" y="612" as="sourcePoint" />
            <mxPoint x="163" y="700" as="targetPoint" />
          </mxGeometry>
        </mxCell>
        <mxCell id="diIoc7219wXee2be8ETG-55" value="" style="endArrow=none;html=1;rounded=0;entryX=0.029;entryY=0.325;entryDx=0;entryDy=0;exitX=0.75;exitY=1;exitDx=0;exitDy=0;entryPerimeter=0;" edge="1" parent="1" source="diIoc7219wXee2be8ETG-42" target="diIoc7219wXee2be8ETG-51">
          <mxGeometry width="50" height="50" relative="1" as="geometry">
            <mxPoint x="227" y="615" as="sourcePoint" />
            <mxPoint x="269" y="702" as="targetPoint" />
          </mxGeometry>
        </mxCell>
        <mxCell id="diIoc7219wXee2be8ETG-56" value="SERVICIO" style="whiteSpace=wrap;html=1;align=center;" vertex="1" parent="1">
          <mxGeometry x="540" y="150" width="100" height="40" as="geometry" />
        </mxCell>
        <mxCell id="diIoc7219wXee2be8ETG-59" style="edgeStyle=orthogonalEdgeStyle;rounded=0;orthogonalLoop=1;jettySize=auto;html=1;exitX=1;exitY=0.5;exitDx=0;exitDy=0;entryX=0;entryY=0.5;entryDx=0;entryDy=0;endArrow=none;endFill=0;" edge="1" parent="1" source="diIoc7219wXee2be8ETG-57" target="diIoc7219wXee2be8ETG-56">
          <mxGeometry relative="1" as="geometry" />
        </mxCell>
        <mxCell id="diIoc7219wXee2be8ETG-57" value="Cuenta con" style="shape=rhombus;perimeter=rhombusPerimeter;whiteSpace=wrap;html=1;align=center;" vertex="1" parent="1">
          <mxGeometry x="350" y="145" width="100" height="50" as="geometry" />
        </mxCell>
        <mxCell id="diIoc7219wXee2be8ETG-60" value="id" style="ellipse;whiteSpace=wrap;html=1;align=center;fontStyle=4;" vertex="1" parent="1">
          <mxGeometry x="535" y="80" width="75" height="40" as="geometry" />
        </mxCell>
        <mxCell id="diIoc7219wXee2be8ETG-61" value="descripcion" style="ellipse;whiteSpace=wrap;html=1;align=center;" vertex="1" parent="1">
          <mxGeometry x="640" y="80" width="100" height="40" as="geometry" />
        </mxCell>
        <mxCell id="diIoc7219wXee2be8ETG-62" value="" style="endArrow=none;html=1;rounded=0;entryX=0.5;entryY=1;entryDx=0;entryDy=0;exitX=0.4;exitY=-0.05;exitDx=0;exitDy=0;exitPerimeter=0;" edge="1" parent="1" source="diIoc7219wXee2be8ETG-56" target="diIoc7219wXee2be8ETG-60">
          <mxGeometry width="50" height="50" relative="1" as="geometry">
            <mxPoint x="520" y="140" as="sourcePoint" />
            <mxPoint x="586" y="120" as="targetPoint" />
          </mxGeometry>
        </mxCell>
        <mxCell id="diIoc7219wXee2be8ETG-63" value="" style="endArrow=none;html=1;rounded=0;entryX=0;entryY=1;entryDx=0;entryDy=0;exitX=0.7;exitY=0;exitDx=0;exitDy=0;exitPerimeter=0;" edge="1" parent="1" source="diIoc7219wXee2be8ETG-56" target="diIoc7219wXee2be8ETG-61">
          <mxGeometry width="50" height="50" relative="1" as="geometry">
            <mxPoint x="590" y="158" as="sourcePoint" />
            <mxPoint x="583" y="130" as="targetPoint" />
          </mxGeometry>
        </mxCell>
        <mxCell id="diIoc7219wXee2be8ETG-64" value="N" style="text;html=1;align=center;verticalAlign=middle;resizable=0;points=[];autosize=1;strokeColor=none;fillColor=none;" vertex="1" parent="1">
          <mxGeometry x="510" y="140" width="30" height="30" as="geometry" />
        </mxCell>
        <mxCell id="diIoc7219wXee2be8ETG-65" value="N" style="text;html=1;align=center;verticalAlign=middle;resizable=0;points=[];autosize=1;strokeColor=none;fillColor=none;" vertex="1" parent="1">
          <mxGeometry x="260" y="140" width="30" height="30" as="geometry" />
        </mxCell>
      </root>
    </mxGraphModel>
  </diagram>
</mxfile>
